<svg width="85" height="40" viewBox="0 0 85 40" fill="none" xmlns="http://www.w3.org/2000/svg">
<rect x="0.0078125" y="0.960693" width="3.84464" height="38.4464" fill="#F3C800"/>
<rect x="1" y="4" width="76" height="21" fill="#F3C800"/>
<path d="M6.714 19V9.984H8.646L12.482 15.374V9.984H14.75V19H12.804L8.968 13.624V19H6.714ZM20.3889 19.14C18.9236 19.14 17.8083 18.7667 17.0429 18.02C16.2776 17.2733 15.8949 16.1113 15.8949 14.534C15.8949 12.8633 16.2776 11.664 17.0429 10.936C17.8083 10.208 18.9236 9.844 20.3889 9.844C21.8543 9.844 22.9696 10.208 23.7349 10.936C24.5003 11.664 24.8829 12.8633 24.8829 14.534C24.8829 16.1113 24.5003 17.2733 23.7349 18.02C22.9696 18.7667 21.8543 19.14 20.3889 19.14ZM20.3889 17.222C21.1449 17.222 21.6956 17.0073 22.0409 16.578C22.3956 16.1393 22.5729 15.458 22.5729 14.534C22.5729 13.526 22.3956 12.8167 22.0409 12.406C21.6956 11.986 21.1449 11.776 20.3889 11.776C19.6236 11.776 19.0636 11.986 18.7089 12.406C18.3636 12.8167 18.1909 13.526 18.1909 14.534C18.1909 15.458 18.3636 16.1393 18.7089 16.578C19.0636 17.0073 19.6236 17.222 20.3889 17.222ZM26.0324 19V9.984H30.5404C31.6044 9.984 32.3884 10.264 32.8924 10.824C33.3964 11.384 33.6484 12.1353 33.6484 13.078C33.6484 13.6847 33.4944 14.2167 33.1864 14.674C32.8784 15.1313 32.4584 15.472 31.9264 15.696C32.057 15.7987 32.1597 15.9153 32.2344 16.046C32.3184 16.1673 32.407 16.34 32.5004 16.564L33.5644 19H31.2124L30.2044 16.704C30.1204 16.508 30.013 16.368 29.8824 16.284C29.7517 16.1907 29.565 16.144 29.3224 16.144H28.2864V19H26.0324ZM28.2864 14.408H29.9524C30.391 14.408 30.7317 14.3007 30.9744 14.086C31.2264 13.862 31.3524 13.526 31.3524 13.078C31.3524 12.1727 30.9184 11.72 30.0504 11.72H28.2864V14.408ZM34.796 19V9.984H38.702C39.6167 9.984 40.3867 10.138 41.012 10.446C41.6374 10.7447 42.1134 11.23 42.44 11.902C42.7667 12.5647 42.93 13.4467 42.93 14.548C42.93 16.0973 42.5707 17.2267 41.852 17.936C41.1427 18.6453 40.0927 19 38.702 19H34.796ZM37.05 17.264H38.394C38.8794 17.264 39.2854 17.194 39.612 17.054C39.948 16.9047 40.2 16.634 40.368 16.242C40.5454 15.85 40.634 15.2853 40.634 14.548C40.634 13.8013 40.5547 13.2273 40.396 12.826C40.2467 12.4153 40.004 12.1307 39.668 11.972C39.3414 11.804 38.9167 11.72 38.394 11.72H37.05V17.264ZM44.0792 19V9.984H50.7292V11.72H46.3332V13.61H50.2112V15.374H46.3332V17.264H50.7292V19H44.0792ZM54.6738 19.14C54.0765 19.14 53.5165 19.0933 52.9938 19C52.4805 18.916 52.0372 18.79 51.6638 18.622V16.704C52.0745 16.8813 52.5272 17.026 53.0218 17.138C53.5258 17.25 54.0018 17.306 54.4498 17.306C55.0098 17.306 55.4252 17.2547 55.6958 17.152C55.9758 17.0493 56.1158 16.8253 56.1158 16.48C56.1158 16.2467 56.0458 16.06 55.9058 15.92C55.7752 15.78 55.5558 15.6587 55.2478 15.556C54.9492 15.444 54.5385 15.3133 54.0158 15.164C53.3998 14.9773 52.9098 14.772 52.5458 14.548C52.1818 14.3147 51.9205 14.0347 51.7618 13.708C51.6032 13.3813 51.5238 12.98 51.5238 12.504C51.5238 11.6453 51.8318 10.9873 52.4478 10.53C53.0638 10.0727 53.9738 9.844 55.1778 9.844C55.7005 9.844 56.2092 9.886 56.7038 9.97C57.1985 10.0447 57.5998 10.1333 57.9078 10.236V12.168C57.5065 12.0093 57.1005 11.8927 56.6898 11.818C56.2885 11.7433 55.8965 11.706 55.5138 11.706C55.0098 11.706 54.5992 11.7527 54.2818 11.846C53.9738 11.9393 53.8198 12.154 53.8198 12.49C53.8198 12.686 53.8758 12.8447 53.9878 12.966C54.0998 13.078 54.2912 13.1807 54.5618 13.274C54.8418 13.3673 55.2198 13.4793 55.6958 13.61C56.4332 13.806 56.9978 14.044 57.3898 14.324C57.7818 14.5947 58.0525 14.912 58.2018 15.276C58.3512 15.6307 58.4258 16.032 58.4258 16.48C58.4258 17.2733 58.1178 17.9173 57.5018 18.412C56.8858 18.8973 55.9432 19.14 54.6738 19.14ZM61.382 19V11.72H58.736V9.984H66.282V11.72H63.636V19H61.382ZM67.2941 19V9.984H73.9441V11.72H69.5481V13.61H73.4261V15.374H69.5481V17.264H73.9441V19H67.2941Z" fill="#D74848"/>
</svg>
